<?xml version="1.0" encoding="iso-8859-1"?>
<!-- Generator: Adobe Illustrator 19.0.0, SVG Export Plug-In . SVG Version: 6.00 Build 0)  -->
<svg version="1.1" id="Layer_1" xmlns="http://www.w3.org/2000/svg" xmlns:xlink="http://www.w3.org/1999/xlink" x="0px" y="0px"
	 viewBox="0 0 496 496" style="enable-background:new 0 0 496 496;" xml:space="preserve">
<g>
	<g>
		<g>
			<path d="M496,48V0h-48v16H48V0H0v48h48V32h117.024C84.832,64.104,27.408,141.248,24.2,232H8v48h48v-48H40.2
				c4.08-107.12,89.496-193.736,196.144-199.656L183.48,85.208l4.808,31.272C132.856,140.264,96,195.456,96,256
				c0,49.368,23.84,95.368,64,123.912V384h-16v16h16v16h-16v16h16v16h-16v16h16v32h176v-32h16v-16h-16v-16h16v-16h-16v-16h16v-16
				h-16v-4.088c40.16-28.544,64-74.544,64-123.912c0-60.544-36.856-115.736-92.288-139.52l4.808-31.272l-52.864-52.864
				C366.304,38.264,451.72,124.88,455.8,232H440v48h48v-48h-16.2c-3.208-90.752-60.632-167.896-140.816-200H448v16H496z M464,16h16
				v16h-16V16z M32,32H16V16h16V32z M40,264H24v-16h16V264z M320,480H176v-16h144V480z M320,448H176v-16h144V448z M320,416H176v-16
				h144V416z M305.208,132.784C352.712,154.896,384,203.208,384,256c0,45.456-22.6,87.728-60.456,113.072L320,371.448V384h-64v-16
				h-16v16h-64v-12.552l-3.544-2.376C134.6,343.728,112,301.456,112,256c0-52.792,31.288-101.104,78.792-123.216l7.88,51.216H184v16
				h17.136h93.736H312v-16h-14.672L305.208,132.784z M295.48,90.792L281.136,184h-66.264l-14.344-93.208L240,51.312v45.824
				c-13.768,3.576-24,15.992-24,30.864c0,17.648,14.352,32,32,32s32-14.352,32-32c0-14.872-10.232-27.288-24-30.864V51.312
				L295.48,90.792z M248,112c8.824,0,16,7.176,16,16s-7.176,16-16,16c-8.824,0-16-7.176-16-16C232,119.176,239.176,112,248,112z
				 M456,248h16v16h-16V248z"/>
			<path d="M248,224c-22.056,0-40,17.944-40,40c0,19.312,13.768,35.472,32,39.192V352h16v-48.808c18.232-3.72,32-19.872,32-39.192
				C288,241.944,270.056,224,248,224z M248,288c-13.232,0-24-10.768-24-24s10.768-24,24-24s24,10.768,24,24S261.232,288,248,288z"/>
		</g>
	</g>
</g>
<g>
</g>
<g>
</g>
<g>
</g>
<g>
</g>
<g>
</g>
<g>
</g>
<g>
</g>
<g>
</g>
<g>
</g>
<g>
</g>
<g>
</g>
<g>
</g>
<g>
</g>
<g>
</g>
<g>
</g>
</svg>
